<svg width="500" height="500" viewBox="0 0 500 500" fill="none" xmlns="http://www.w3.org/2000/svg">
<path d="M157.874 221.57H146.686C146.54 221.57 146.124 221.632 146.061 221.778L132.832 240.466L126.936 232.278H113.915C118.061 238.091 122.103 243.903 126.249 249.57L107.061 276.528C106.644 277.007 106.915 277.57 107.624 277.57H118.832C118.957 277.57 119.374 277.507 119.457 277.361L132.832 258.674L138.624 266.861H151.644C147.519 261.049 143.394 255.236 139.269 249.57L158.582 222.611C158.936 222.132 158.644 221.57 157.874 221.57Z" fill="white"/>
<path d="M187.847 221.57H169.722C169.368 221.57 169.014 221.924 169.014 222.195V231.861H187.847C189.097 231.861 196.097 232.216 196.097 238.361C196.097 244.528 189.243 244.674 187.847 244.674H169.014V276.945C169.014 277.216 169.368 277.57 169.722 277.57H178.806C179.306 277.57 179.514 277.216 179.514 276.945V255.028H187.847C189.181 255.028 206.743 254.82 206.743 238.361C206.743 221.924 190.076 221.57 187.847 221.57Z" fill="white"/>
<path d="M242.939 267.132H227.044V254.549H249.023C249.439 254.549 249.794 254.195 249.794 253.903V245.028C249.794 244.674 249.439 244.382 249.023 244.382H227.044V231.716H242.939V221.57H217.106C216.689 221.57 216.335 221.924 216.335 222.195V276.945C216.335 277.216 216.689 277.57 217.106 277.57H242.939V267.132Z" fill="white"/>
<path d="M303.135 276.736L281.864 221.986C281.656 221.424 280.677 221.424 280.447 221.986L259.239 276.736C259.031 277.153 259.322 277.57 259.947 277.57H269.531C269.822 277.57 270.177 277.424 270.239 277.153L281.156 245.924L292.218 277.153C292.281 277.424 292.635 277.57 292.843 277.57H302.51C302.989 277.57 303.343 277.153 303.135 276.736Z" fill="white"/>
<path d="M331.911 221.57H313.786C313.432 221.57 313.078 221.924 313.078 222.195V231.861H331.911C333.161 231.861 340.161 232.216 340.161 238.361C340.161 244.528 333.307 244.674 331.911 244.674H313.078V276.945C313.078 277.216 313.432 277.57 313.786 277.57H322.87C323.37 277.57 323.578 277.216 323.578 276.945V255.028H331.911C333.245 255.028 350.807 254.82 350.807 238.361C350.807 221.924 334.14 221.57 331.911 221.57Z" fill="white"/>
<path d="M379.233 221.57H361.108C360.753 221.57 360.399 221.924 360.399 222.195V231.861H379.233C380.483 231.861 387.483 232.216 387.483 238.361C387.483 244.528 380.628 244.674 379.233 244.674H360.399V276.945C360.399 277.216 360.753 277.57 361.108 277.57H370.191C370.691 277.57 370.899 277.216 370.899 276.945V255.028H379.233C380.566 255.028 398.128 254.82 398.128 238.361C398.128 221.924 381.462 221.57 379.233 221.57Z" fill="white"/>
<path d="M416.646 184.38H332.213" stroke="white" stroke-width="10"/>
<path d="M411.651 264.839V182.375" stroke="white" stroke-width="10"/>
<path d="M83.3438 315.609H167.776" stroke="white" stroke-width="10"/>
<path d="M88.3386 235.151V317.615" stroke="white" stroke-width="10"/>
</svg>
