<svg width="22" height="25" viewBox="0 0 22 25" fill="none" xmlns="http://www.w3.org/2000/svg">
<path fill-rule="evenodd" clip-rule="evenodd" d="M3.6 7.7C3.6 3.72355 6.82355 0.5 10.8 0.5C14.7765 0.5 18 3.72355 18 7.7C18 11.6765 14.7765 14.9 10.8 14.9C6.82355 14.9 3.6 11.6765 3.6 7.7Z" fill="white"/>
<path fill-rule="evenodd" clip-rule="evenodd" d="M0 21.7C0 16.4234 5.04948 12.5 10.8 12.5C16.5505 12.5 21.6 16.4234 21.6 21.7C21.6 22.7844 20.8194 23.4038 20.1499 23.7139C19.4845 24.0221 18.625 24.1886 17.7255 24.2921C15.9195 24.5 13.4656 24.5 10.8688 24.5H10.7312C8.13439 24.5 5.68046 24.5 3.87453 24.2921C2.97499 24.1886 2.11555 24.0221 1.45008 23.7139C0.780613 23.4038 0 22.7844 0 21.7Z" fill="white"/>
</svg>
